<?xml version="1.0" encoding="UTF-8" standalone="no"?>
<svg
   xmlns:dc="http://purl.org/dc/elements/1.1/"
   xmlns:cc="http://creativecommons.org/ns#"
   xmlns:rdf="http://www.w3.org/1999/02/22-rdf-syntax-ns#"
   xmlns:svg="http://www.w3.org/2000/svg"
   xmlns="http://www.w3.org/2000/svg"
   xmlns:xlink="http://www.w3.org/1999/xlink"
   xmlns:sodipodi="http://sodipodi.sourceforge.net/DTD/sodipodi-0.dtd"
   xmlns:inkscape="http://www.inkscape.org/namespaces/inkscape"
   version="1.1"
   id="Layer_1"
   x="0px"
   y="0px"
   width="100px"
   height="100px"
   viewBox="0 0 100 100"
   enable-background="new 0 0 100 100"
   xml:space="preserve"
   inkscape:version="0.48.4 r9939"
   sodipodi:docname="logo.svg"
   inkscape:export-filename="/home/jmccrae/projects/yuzu/assets/favicon.ico.png"
   inkscape:export-xdpi="30.098602"
   inkscape:export-ydpi="30.098602"><metadata
     id="metadata37"><rdf:RDF><cc:Work
         rdf:about=""><dc:format>image/svg+xml</dc:format><dc:type
           rdf:resource="http://purl.org/dc/dcmitype/StillImage" /><dc:title></dc:title></cc:Work></rdf:RDF></metadata><defs
     id="defs35"><linearGradient
       id="linearGradient3827"><stop
         style="stop-color:#88aa00;stop-opacity:1;"
         offset="0"
         id="stop3829" /><stop
         style="stop-color:#d3d600;stop-opacity:1;"
         offset="1"
         id="stop3831" /></linearGradient><linearGradient
       id="linearGradient3797"><stop
         style="stop-color:#fffc2a;stop-opacity:1;"
         offset="0"
         id="stop3799" /><stop
         style="stop-color:#ffbb2a;stop-opacity:1;"
         offset="1"
         id="stop3801" /></linearGradient><linearGradient
       inkscape:collect="always"
       xlink:href="#linearGradient3797"
       id="linearGradient3803"
       x1="51.341"
       y1="58.9185"
       x2="68.944674"
       y2="58.9185"
       gradientUnits="userSpaceOnUse"
       gradientTransform="matrix(0.67249904,0.740098,-0.740098,0.67249904,53.380154,-20.629318)" /><linearGradient
       inkscape:collect="always"
       xlink:href="#linearGradient3797"
       id="linearGradient3805"
       x1="51.152228"
       y1="24.704"
       x2="68.842359"
       y2="24.704"
       gradientUnits="userSpaceOnUse"
       gradientTransform="matrix(0.67249904,0.740098,-0.740098,0.67249904,53.380154,-20.629318)" /><linearGradient
       inkscape:collect="always"
       xlink:href="#linearGradient3797"
       id="linearGradient3807"
       x1="55.554"
       y1="49.308"
       x2="92.394"
       y2="49.308"
       gradientUnits="userSpaceOnUse"
       gradientTransform="matrix(0.67249904,0.740098,-0.740098,0.67249904,53.380154,-20.629318)" /><linearGradient
       inkscape:collect="always"
       xlink:href="#linearGradient3797"
       id="linearGradient3809"
       x1="53.799"
       y1="55.688261"
       x2="85.010209"
       y2="55.688261"
       gradientUnits="userSpaceOnUse"
       gradientTransform="matrix(0.67249904,0.740098,-0.740098,0.67249904,53.380154,-20.629318)" /><linearGradient
       inkscape:collect="always"
       xlink:href="#linearGradient3797"
       id="linearGradient3811"
       x1="53.841"
       y1="27.828"
       x2="85.027198"
       y2="27.828"
       gradientUnits="userSpaceOnUse"
       gradientTransform="matrix(0.67249904,0.740098,-0.740098,0.67249904,53.380154,-20.629318)" /><linearGradient
       inkscape:collect="always"
       xlink:href="#linearGradient3797"
       id="linearGradient3813"
       x1="55.567"
       y1="34.5135"
       x2="92.37"
       y2="34.5135"
       gradientUnits="userSpaceOnUse"
       gradientTransform="matrix(0.67249904,0.740098,-0.740098,0.67249904,53.380154,-20.629318)" /><linearGradient
       inkscape:collect="always"
       xlink:href="#linearGradient3797"
       id="linearGradient3815"
       x1="15.187878"
       y1="27.885364"
       x2="46.463"
       y2="27.885364"
       gradientUnits="userSpaceOnUse"
       gradientTransform="matrix(0.67249904,0.740098,-0.740098,0.67249904,53.380154,-20.629318)" /><linearGradient
       inkscape:collect="always"
       xlink:href="#linearGradient3797"
       id="linearGradient3817"
       x1="7.657"
       y1="34.585747"
       x2="44.707"
       y2="34.585747"
       gradientUnits="userSpaceOnUse"
       gradientTransform="matrix(0.67249904,0.740098,-0.740098,0.67249904,53.380154,-20.629318)" /><linearGradient
       inkscape:collect="always"
       xlink:href="#linearGradient3797"
       id="linearGradient3819"
       x1="31.421893"
       y1="58.9165"
       x2="48.945023"
       y2="58.9165"
       gradientUnits="userSpaceOnUse"
       gradientTransform="matrix(0.67249904,0.740098,-0.740098,0.67249904,53.380154,-20.629318)" /><linearGradient
       inkscape:collect="always"
       xlink:href="#linearGradient3797"
       id="linearGradient3821"
       x1="31.306274"
       y1="24.709"
       x2="48.865"
       y2="24.709"
       gradientUnits="userSpaceOnUse"
       gradientTransform="matrix(0.67249904,0.740098,-0.740098,0.67249904,53.380154,-20.629318)" /><linearGradient
       inkscape:collect="always"
       xlink:href="#linearGradient3797"
       id="linearGradient3823"
       x1="7.665"
       y1="49.037"
       x2="44.732"
       y2="49.037"
       gradientUnits="userSpaceOnUse"
       gradientTransform="matrix(0.67249904,0.740098,-0.740098,0.67249904,53.380154,-20.629318)" /><linearGradient
       inkscape:collect="always"
       xlink:href="#linearGradient3797"
       id="linearGradient3825"
       x1="15.228071"
       y1="55.697176"
       x2="46.524"
       y2="55.697176"
       gradientUnits="userSpaceOnUse"
       gradientTransform="matrix(0.67249904,0.740098,-0.740098,0.67249904,53.380154,-20.629318)" /><radialGradient
       inkscape:collect="always"
       xlink:href="#linearGradient3827"
       id="radialGradient3833"
       cx="49.9995"
       cy="50.0005"
       fx="49.9995"
       fy="50.0005"
       r="49.9995"
       gradientTransform="matrix(0.67249904,0.740098,-0.65631807,0.59637139,49.191116,-16.822897)"
       gradientUnits="userSpaceOnUse" /></defs><sodipodi:namedview
     pagecolor="#ffffff"
     bordercolor="#666666"
     borderopacity="1"
     objecttolerance="10"
     gridtolerance="10"
     guidetolerance="10"
     inkscape:pageopacity="0"
     inkscape:pageshadow="2"
     inkscape:window-width="1920"
     inkscape:window-height="1176"
     id="namedview33"
     showgrid="false"
     inkscape:zoom="2.36"
     inkscape:cx="-23.940678"
     inkscape:cy="50"
     inkscape:window-x="1920"
     inkscape:window-y="0"
     inkscape:window-maximized="1"
     inkscape:current-layer="Layer_1" /><path
     inkscape:connector-curvature="0"
     id="path5"
     d="m 51.713835,43.718374 c -0.107617,-0.04408 -0.227207,-0.08945 -0.296823,-0.114021 -0.112731,-0.04079 -0.204475,-0.07633 -0.254987,-0.100691 l -28.5622,-13.286008 c -1.064254,-0.497624 -2.260847,-0.315611 -2.710709,0.164774 -0.134367,0.145064 -0.232692,0.350609 -0.295383,0.625113 -0.174305,3.790335 0.280968,7.767957 1.35609,11.825502 0.12088,0.284704 0.260066,0.527101 0.421658,0.745085 0.472202,0.635652 1.17852,1.157206 1.989423,1.460772 0.697636,0.25921 1.845768,0.483345 2.321692,0.449487 l 26.03352,-1.743711 c -0.0017,-0.0093 -0.002,-0.01709 -0.0023,-0.0263 z"
     style="fill:url(#linearGradient3825);fill-opacity:1" /><path
     inkscape:connector-curvature="0"
     id="path7"
     d="M 51.708477,41.330317 29.629309,17.098687 C 28.24369,15.579735 26.303824,14.488743 25.23637,15.30061 c -0.297608,0.360954 -0.592664,0.742559 -0.876826,1.13318 -0.01992,0.03161 -0.04051,0.06248 -0.06386,0.09181 -1.170968,1.628804 -2.147647,3.458043 -2.898207,5.429067 -0.0063,0.02731 -0.0169,0.05724 -0.02666,0.08367 -0.0087,0.02011 -0.01609,0.04029 -0.0247,0.05757 -0.235314,0.627279 -0.456313,1.310461 -0.672355,2.08237 -0.003,0.01756 -0.0067,0.03578 -0.009,0.05408 l 0,0 c 0,0 -6.73e-4,-7.4e-4 -0.0013,-0.0015 0.01995,0.988498 0.613918,1.845891 1.110895,2.392824 0.47882,0.526949 1.096283,1.026554 1.78924,1.442698 0.837964,0.507324 1.752553,0.981504 3.055109,1.588225 l 25.089771,11.675688 z"
     style="fill:url(#linearGradient3823);fill-opacity:1" /><path
     inkscape:connector-curvature="0"
     id="path9"
     d="m 61.838222,16.26709 -0.03011,0.185449 c -0.301401,1.904737 -0.605627,3.809338 -0.909854,5.71394 l -2.694118,16.889375 c -0.105227,0.660405 -0.209646,1.318725 -0.314132,1.978458 l -0.0027,0.01191 c 0.05737,0.0438 0.107877,0.08303 0.151593,0.116274 L 71.283176,29.064419 c 0.897201,-0.819306 1.794471,-1.640026 2.691,-2.460072 l 1.351016,-1.234374 c 1.339916,-1.224286 1.696405,-2.253527 1.224763,-3.551761 -0.03933,-0.110193 -0.09116,-0.225233 -0.159273,-0.355209 -3.649618,-3.588221 -7.655013,-6.605897 -11.906086,-8.972013 -0.331544,-0.06896 -0.613195,-0.05625 -0.880471,0.04069 -0.425098,0.15522 -0.784256,0.515352 -1.065025,1.071788 -0.406081,0.808121 -0.536637,1.628012 -0.700878,2.66362 z"
     style="fill:url(#linearGradient3821);fill-opacity:1" /><path
     inkscape:connector-curvature="0"
     id="path11"
     d="m 52.395109,46.050287 c -0.66192,0.04478 -1.327339,0.08868 -1.991412,0.134067 -5.307943,0.354799 -10.617433,0.712356 -15.924636,1.066483 -2.350759,0.15793 -4.702931,0.315792 -7.054363,0.472982 -0.208801,0.01408 -0.413834,0.02338 -0.618867,0.03268 -1.060145,0.05262 -1.974788,0.09734 -2.645837,0.628731 -0.475264,0.375106 -0.870333,0.982705 -0.220922,2.649069 1.803473,3.852417 4.120967,7.570151 6.889341,11.052488 0.332293,0.319598 0.656604,0.539705 1.016717,0.69215 1.210085,0.51239 2.285892,0.221241 3.595396,-0.974061 L 52.541721,46.181896 c -0.02676,-0.04729 -0.05285,-0.09385 -0.07833,-0.138253 l -0.06828,0.0066 z"
     style="fill:url(#linearGradient3819);fill-opacity:1" /><path
     inkscape:connector-curvature="0"
     id="path13"
     d="M 31.816959,16.310693 53.282135,39.866614 C 53.149168,39.494258 53.016873,39.122643 52.883165,38.75096 L 43.772085,13.237031 C 43.659083,12.920849 43.554222,12.597268 43.446739,12.269315 43.140692,11.3273 42.823487,10.352186 42.296172,9.522051 41.672027,8.5407439 40.920754,7.8195295 40.158964,7.4807944 c -0.230165,-0.1016276 -0.45933,-0.16498 -0.714198,-0.1941665 -3.571298,0.618424 -6.79027,1.8922486 -9.571141,3.7894751 -0.237656,0.291615 -0.334871,0.636673 -0.305109,1.079837 0.08956,1.338707 1.261887,3.06903 2.239028,4.144392"
     style="fill:url(#linearGradient3817);fill-opacity:1" /><path
     inkscape:connector-curvature="0"
     id="path15"
     d="m 55.633305,39.966385 c 0.009,0.0337 0.02063,0.07178 0.03092,0.108375 l 3.531416,-22.137438 c 0.238206,-1.486551 0.475,-2.97317 0.711121,-4.460529 0.137089,-0.852849 -0.196261,-2.111902 -0.791167,-2.994117 C 58.867058,10.113992 58.577745,9.8134416 58.227342,9.5616451 54.068041,7.9701336 49.929161,7.0761887 45.920879,6.899949 45.340933,7.0512987 45.0586,7.3889142 44.955593,8.0473022 c -0.10597,0.675944 0.02387,2.0307378 0.257408,2.6832848 3.434628,9.619288 6.867979,19.235683 10.304761,28.854366 0.0486,0.138245 0.08355,0.265927 0.115543,0.381432 z"
     style="fill:url(#linearGradient3815);fill-opacity:1" /><path
     inkscape:connector-curvature="0"
     id="path17"
     d="m 60.595836,47.894663 21.549911,23.649173 c 1.097048,1.202862 2.843672,2.515388 4.089856,2.554494 0.09047,0.0029 0.176375,-0.0022 0.264768,-0.01494 2.42591,-2.793444 4.147192,-6.143757 5.121649,-9.96801 -0.06142,-0.254957 -0.159978,-0.503197 -0.300103,-0.755549 C 91.15503,63.060184 90.935069,62.76012 90.669432,62.467782 90.339235,62.104394 89.936319,61.751684 89.47084,61.419341 88.726787,60.887486 87.838006,60.51011 86.978484,60.142629 86.636464,59.996713 86.298614,59.852413 85.973143,59.700917 80.240714,57.032424 74.506872,54.363862 68.773635,51.697454 l -8.177799,-3.802791 z"
     style="fill:url(#linearGradient3813);fill-opacity:1" /><path
     inkscape:connector-curvature="0"
     id="path19"
     d="m 60.860493,45.485548 c -0.06458,0.0033 -0.129223,0.008 -0.193127,0.01199 L 88.741191,58.55984 c 0.418289,0.194164 1.445601,0.457824 2.074264,0.531091 0.431507,0.05109 1.207969,0.06843 1.65654,-0.355388 0.293882,-4.262456 -0.215555,-8.750245 -1.514888,-13.344502 -0.0053,-0.0073 -0.01,-0.01393 -0.01459,-0.02052 -0.04815,-0.05894 -0.09442,-0.112829 -0.143509,-0.166857 -0.926031,-1.019115 -2.404909,-1.565605 -3.300452,-1.505813 -1.360771,0.09204 -2.721543,0.184077 -4.084332,0.273895 l -16.60149,1.112672 c -1.984281,0.132992 -3.969303,0.266657 -5.952239,0.40113 z"
     style="fill:url(#linearGradient3811);fill-opacity:1" /><path
     inkscape:connector-curvature="0"
     id="path21"
     d="m 56.993454,50.257321 -0.398969,-1.115655 c -0.246425,1.53996 -0.49211,3.079246 -0.736518,4.621426 -0.474733,2.982385 -0.947712,5.942909 -1.421431,8.904105 l -1.923517,12.073488 c -0.06373,0.399754 -0.06482,1.014173 -0.001,1.604795 0.09618,0.904364 0.377847,1.690179 0.838343,2.333766 0.242687,0.342918 0.519091,0.617366 0.856044,0.854361 4.219373,1.578812 8.405819,2.440345 12.446402,2.562913 0.860853,-0.429568 1.150369,-1.568201 0.702933,-2.824926 L 62.924817,66.860749 C 60.946911,61.327887 58.96988,55.791528 56.993454,50.257321 z"
     style="fill:url(#linearGradient3809);fill-opacity:1" /><path
     inkscape:connector-curvature="0"
     id="path23"
     d="m 72.69857,81.677923 c 3.782056,-0.658601 7.169428,-2.063826 10.076005,-4.176614 0.233184,-1.01178 -0.404021,-2.518986 -1.671682,-3.91407 -2.274662,-2.497361 -4.542667,-4.985909 -6.809999,-7.473716 L 58.998843,49.328225 69.172451,77.816693 c 0.240995,0.674142 1.008949,1.978769 1.674587,2.714292 l -0.491158,0.455755 0,0 0.495866,-0.450575 c 0.570212,0.629016 1.17674,1.002088 1.846824,1.141758 z"
     style="fill:url(#linearGradient3807);fill-opacity:1" /><path
     inkscape:connector-curvature="0"
     id="path25"
     d="m 74.019347,29.891238 c -3.712537,3.392359 -7.426488,6.784651 -11.140371,10.17553 -1.052825,0.964769 -2.106187,1.925973 -3.161769,2.889194 0.04451,0.07575 0.09979,0.163349 0.148402,0.24213 0.301833,-0.02024 0.603666,-0.04049 0.905499,-0.06073 l 0.05967,-0.0042 c 5.052255,-0.337303 10.105319,-0.676691 15.154817,-1.015541 l 1.201614,-0.07983 c 3.097034,-0.205044 6.29914,-0.416386 9.202392,-0.684504 0.583758,-0.05347 1.984252,-0.295107 2.379362,-1.362142 0.05755,-0.15228 0.08604,-0.318692 0.09005,-0.506098 -1.947668,-4.537501 -4.596908,-8.896908 -7.876983,-12.958739 -2.115926,-1.287723 -4.006525,0.363985 -6.07825,2.486992 -0.314887,0.322607 -0.612751,0.629747 -0.884435,0.877966 z"
     style="fill:url(#linearGradient3805);fill-opacity:1" /><path
     inkscape:connector-curvature="0"
     id="path27"
     d="m 50.492028,72.504649 0.311029,-1.943211 c 0.272769,-1.720633 0.546951,-3.441199 0.822545,-5.161697 l 2.48057,-15.563048 c 0.0896,-0.555674 0.178385,-1.109263 0.2665,-1.663592 -0.04546,-0.04111 -0.113253,-0.10382 -0.183869,-0.166664 L 40.542524,60.472501 c -1.171913,1.071629 -2.343826,2.143258 -3.517084,3.213407 -1.180122,1.080439 -1.577584,2.137451 -1.251012,3.331051 0.107131,0.394481 0.293713,0.755952 0.584959,1.134466 3.512449,3.348044 7.349046,6.179956 11.405949,8.417142 0.200781,0.04996 0.378832,0.07193 0.542629,0.06632 0.558054,-0.01931 1.021392,-0.307912 1.378374,-0.859285 0.436386,-0.672167 0.564477,-1.588452 0.699373,-2.558213 0.03618,-0.238252 0.06879,-0.475967 0.106316,-0.712739 z"
     style="fill:url(#linearGradient3803);fill-opacity:1" /><path
     d="M 98.527453,53.618262 C 97.372847,42.005572 91.850016,30.193755 82.972104,20.355042 82.584677,19.930158 82.195567,19.510857 81.799529,19.088393 72.860439,9.6700852 61.753407,3.33507 50.525037,1.2516547 39.158437,-0.85748911 28.899933,1.6149327 21.638091,8.2134933 19.687193,9.9862007 18.015666,12.000934 16.630314,14.219084 0.90135733,28.755953 -0.91605048,59.899403 17.175519,79.80952 c 18.063996,19.879772 49.174498,21.0691 65.166256,6.86903 2.375349,-1.174737 4.570226,-2.661097 6.545547,-4.455997 7.383218,-6.70885 10.806548,-16.868568 9.640131,-28.604291 z M 29.298118,68.813089 C 11.552213,49.283383 8.7633384,22.81191 23.080534,9.8024161 29.834669,3.6651899 39.442184,1.3789455 50.134458,3.363083 c 10.785637,2.0006398 21.478691,8.110549 30.105133,17.198164 0.384605,0.409883 0.766923,0.823195 1.144262,1.236978 17.590459,19.49395 20.308717,45.887714 6.060959,58.836818 C 73.127616,93.644537 47.042677,88.341315 29.298118,68.813089 z"
     id="path31"
     inkscape:connector-curvature="0"
     style="fill:url(#radialGradient3833);fill-opacity:1;stroke:none" /></svg>