<?xml version="1.0" encoding="UTF-8" standalone="no"?>
<!-- Created with Inkscape (http://www.inkscape.org/) -->

<svg
   xmlns:dc="http://purl.org/dc/elements/1.1/"
   xmlns:cc="http://creativecommons.org/ns#"
   xmlns:rdf="http://www.w3.org/1999/02/22-rdf-syntax-ns#"
   xmlns:svg="http://www.w3.org/2000/svg"
   xmlns="http://www.w3.org/2000/svg"
   xmlns:xlink="http://www.w3.org/1999/xlink"
   xmlns:sodipodi="http://sodipodi.sourceforge.net/DTD/sodipodi-0.dtd"
   xmlns:inkscape="http://www.inkscape.org/namespaces/inkscape"
   width="744.09448819"
   height="1052.3622047"
   id="svg2"
   version="1.1"
   inkscape:version="0.48.4 r9939"
   sodipodi:docname="logo_small.svg"
   inkscape:export-filename="/home/jmccrae/projects/yuzu/common/assets/logo_small.png"
   inkscape:export-xdpi="55.145748"
   inkscape:export-ydpi="55.145748">
  <defs
     id="defs4">
    <radialGradient
       inkscape:collect="always"
       xlink:href="#linearGradient3827"
       id="radialGradient3833"
       cx="49.9995"
       cy="50.0005"
       fx="49.9995"
       fy="50.0005"
       r="49.9995"
       gradientTransform="matrix(0.80969243,0.88374229,-0.79021045,0.71212004,68.311489,-7.6154444)"
       gradientUnits="userSpaceOnUse" />
    <linearGradient
       id="linearGradient3827">
      <stop
         style="stop-color:#88aa00;stop-opacity:1;"
         offset="0"
         id="stop3829" />
      <stop
         style="stop-color:#d3d600;stop-opacity:1;"
         offset="1"
         id="stop3831" />
    </linearGradient>
    <linearGradient
       inkscape:collect="always"
       xlink:href="#linearGradient3797"
       id="linearGradient3803"
       x1="51.341"
       y1="58.918499"
       x2="68.944672"
       y2="58.918499"
       gradientUnits="userSpaceOnUse"
       gradientTransform="matrix(0.80969243,0.88374229,-0.89108193,0.80302317,73.355116,-12.160644)" />
    <linearGradient
       id="linearGradient3797">
      <stop
         style="stop-color:#fffc2a;stop-opacity:1;"
         offset="0"
         id="stop3799" />
      <stop
         style="stop-color:#ffbb2a;stop-opacity:1;"
         offset="1"
         id="stop3801" />
    </linearGradient>
    <linearGradient
       inkscape:collect="always"
       xlink:href="#linearGradient3797"
       id="linearGradient3805"
       x1="51.152229"
       y1="24.704"
       x2="68.842361"
       y2="24.704"
       gradientUnits="userSpaceOnUse"
       gradientTransform="matrix(0.80969243,0.88374229,-0.89108193,0.80302317,73.355116,-12.160644)" />
    <linearGradient
       id="linearGradient3032">
      <stop
         style="stop-color:#fffc2a;stop-opacity:1;"
         offset="0"
         id="stop3034" />
      <stop
         style="stop-color:#ffbb2a;stop-opacity:1;"
         offset="1"
         id="stop3036" />
    </linearGradient>
    <linearGradient
       inkscape:collect="always"
       xlink:href="#linearGradient3797"
       id="linearGradient3807"
       x1="55.554001"
       y1="49.307999"
       x2="92.393997"
       y2="49.307999"
       gradientUnits="userSpaceOnUse"
       gradientTransform="matrix(0.80969243,0.88374229,-0.89108193,0.80302317,73.355116,-12.160644)" />
    <linearGradient
       id="linearGradient3039">
      <stop
         style="stop-color:#fffc2a;stop-opacity:1;"
         offset="0"
         id="stop3041" />
      <stop
         style="stop-color:#ffbb2a;stop-opacity:1;"
         offset="1"
         id="stop3043" />
    </linearGradient>
    <linearGradient
       inkscape:collect="always"
       xlink:href="#linearGradient3797"
       id="linearGradient3809"
       x1="53.799"
       y1="55.688259"
       x2="85.010208"
       y2="55.688259"
       gradientUnits="userSpaceOnUse"
       gradientTransform="matrix(0.80969243,0.88374229,-0.89108193,0.80302317,73.355116,-12.160644)" />
    <linearGradient
       id="linearGradient3046">
      <stop
         style="stop-color:#fffc2a;stop-opacity:1;"
         offset="0"
         id="stop3048" />
      <stop
         style="stop-color:#ffbb2a;stop-opacity:1;"
         offset="1"
         id="stop3050" />
    </linearGradient>
    <linearGradient
       inkscape:collect="always"
       xlink:href="#linearGradient3797"
       id="linearGradient3811"
       x1="53.841"
       y1="27.827999"
       x2="85.027199"
       y2="27.827999"
       gradientUnits="userSpaceOnUse"
       gradientTransform="matrix(0.80969243,0.88374229,-0.89108193,0.80302317,73.355116,-12.160644)" />
    <linearGradient
       id="linearGradient3053">
      <stop
         style="stop-color:#fffc2a;stop-opacity:1;"
         offset="0"
         id="stop3055" />
      <stop
         style="stop-color:#ffbb2a;stop-opacity:1;"
         offset="1"
         id="stop3057" />
    </linearGradient>
    <linearGradient
       inkscape:collect="always"
       xlink:href="#linearGradient3797"
       id="linearGradient3813"
       x1="55.567001"
       y1="34.5135"
       x2="92.370003"
       y2="34.5135"
       gradientUnits="userSpaceOnUse"
       gradientTransform="matrix(0.80969243,0.88374229,-0.89108193,0.80302317,73.355116,-12.160644)" />
    <linearGradient
       id="linearGradient3060">
      <stop
         style="stop-color:#fffc2a;stop-opacity:1;"
         offset="0"
         id="stop3062" />
      <stop
         style="stop-color:#ffbb2a;stop-opacity:1;"
         offset="1"
         id="stop3064" />
    </linearGradient>
    <linearGradient
       inkscape:collect="always"
       xlink:href="#linearGradient3797"
       id="linearGradient3815"
       x1="15.187878"
       y1="27.885365"
       x2="46.463001"
       y2="27.885365"
       gradientUnits="userSpaceOnUse"
       gradientTransform="matrix(0.80969243,0.88374229,-0.89108193,0.80302317,73.355116,-12.160644)" />
    <linearGradient
       id="linearGradient3067">
      <stop
         style="stop-color:#fffc2a;stop-opacity:1;"
         offset="0"
         id="stop3069" />
      <stop
         style="stop-color:#ffbb2a;stop-opacity:1;"
         offset="1"
         id="stop3071" />
    </linearGradient>
    <linearGradient
       inkscape:collect="always"
       xlink:href="#linearGradient3797"
       id="linearGradient3817"
       x1="7.6570001"
       y1="34.585747"
       x2="44.707001"
       y2="34.585747"
       gradientUnits="userSpaceOnUse"
       gradientTransform="matrix(0.80969243,0.88374229,-0.89108193,0.80302317,73.355116,-12.160644)" />
    <linearGradient
       id="linearGradient3074">
      <stop
         style="stop-color:#fffc2a;stop-opacity:1;"
         offset="0"
         id="stop3076" />
      <stop
         style="stop-color:#ffbb2a;stop-opacity:1;"
         offset="1"
         id="stop3078" />
    </linearGradient>
    <linearGradient
       inkscape:collect="always"
       xlink:href="#linearGradient3797"
       id="linearGradient3819"
       x1="31.421892"
       y1="58.9165"
       x2="48.945023"
       y2="58.9165"
       gradientUnits="userSpaceOnUse"
       gradientTransform="matrix(0.80969243,0.88374229,-0.89108193,0.80302317,73.355116,-12.160644)" />
    <linearGradient
       id="linearGradient3081">
      <stop
         style="stop-color:#fffc2a;stop-opacity:1;"
         offset="0"
         id="stop3083" />
      <stop
         style="stop-color:#ffbb2a;stop-opacity:1;"
         offset="1"
         id="stop3085" />
    </linearGradient>
    <linearGradient
       inkscape:collect="always"
       xlink:href="#linearGradient3797"
       id="linearGradient3821"
       x1="31.306274"
       y1="24.709"
       x2="48.865002"
       y2="24.709"
       gradientUnits="userSpaceOnUse"
       gradientTransform="matrix(0.80969243,0.88374229,-0.89108193,0.80302317,73.355116,-12.160644)" />
    <linearGradient
       id="linearGradient3088">
      <stop
         style="stop-color:#fffc2a;stop-opacity:1;"
         offset="0"
         id="stop3090" />
      <stop
         style="stop-color:#ffbb2a;stop-opacity:1;"
         offset="1"
         id="stop3092" />
    </linearGradient>
    <linearGradient
       inkscape:collect="always"
       xlink:href="#linearGradient3797"
       id="linearGradient3823"
       x1="7.665"
       y1="49.036999"
       x2="44.731998"
       y2="49.036999"
       gradientUnits="userSpaceOnUse"
       gradientTransform="matrix(0.80969243,0.88374229,-0.89108193,0.80302317,73.355116,-12.160644)" />
    <linearGradient
       id="linearGradient3095">
      <stop
         style="stop-color:#fffc2a;stop-opacity:1;"
         offset="0"
         id="stop3097" />
      <stop
         style="stop-color:#ffbb2a;stop-opacity:1;"
         offset="1"
         id="stop3099" />
    </linearGradient>
    <linearGradient
       inkscape:collect="always"
       xlink:href="#linearGradient3797"
       id="linearGradient3825"
       x1="15.228071"
       y1="55.697178"
       x2="46.523998"
       y2="55.697178"
       gradientUnits="userSpaceOnUse"
       gradientTransform="matrix(0.67249904,0.740098,-0.740098,0.67249904,53.380154,-20.629318)" />
    <linearGradient
       id="linearGradient3102">
      <stop
         style="stop-color:#fffc2a;stop-opacity:1;"
         offset="0"
         id="stop3104" />
      <stop
         style="stop-color:#ffbb2a;stop-opacity:1;"
         offset="1"
         id="stop3106" />
    </linearGradient>
    <linearGradient
       y2="55.697178"
       x2="46.523998"
       y1="55.697178"
       x1="15.228071"
       gradientTransform="matrix(0.80969243,0.88374229,-0.89108193,0.80302317,73.355116,-12.160644)"
       gradientUnits="userSpaceOnUse"
       id="linearGradient3121"
       xlink:href="#linearGradient3797"
       inkscape:collect="always" />
  </defs>
  <sodipodi:namedview
     id="base"
     pagecolor="#ffffff"
     bordercolor="#666666"
     borderopacity="1.0"
     inkscape:pageopacity="0.0"
     inkscape:pageshadow="2"
     inkscape:zoom="1.4"
     inkscape:cx="199.59362"
     inkscape:cy="794.89318"
     inkscape:document-units="px"
     inkscape:current-layer="flowRoot2989"
     showgrid="false"
     inkscape:window-width="1916"
     inkscape:window-height="1149"
     inkscape:window-x="0"
     inkscape:window-y="24"
     inkscape:window-maximized="0" />
  <metadata
     id="metadata7">
    <rdf:RDF>
      <cc:Work
         rdf:about="">
        <dc:format>image/svg+xml</dc:format>
        <dc:type
           rdf:resource="http://purl.org/dc/dcmitype/StillImage" />
        <dc:title />
      </cc:Work>
    </rdf:RDF>
  </metadata>
  <g
     inkscape:label="Layer 1"
     inkscape:groupmode="layer"
     id="layer1">
    <g
       style="font-size:40px;font-style:normal;font-weight:normal;line-height:125%;letter-spacing:0px;word-spacing:0px;fill:#000000;fill-opacity:1;stroke:none;font-family:Sans"
       id="flowRoot2989">
      <path
         style="font-size:144px;font-variant:normal;font-weight:900;font-stretch:normal;fill:#9ec600;fill-opacity:1;stroke:#506400;stroke-opacity:1;font-family:VAL Stencil;-inkscape-font-specification:VAL Stencil Heavy;stroke-width:2;stroke-miterlimit:4;stroke-dasharray:none"
         d="m 172.21782,28.435286 c -8.63999,-9.07199 -22.60801,-9.07199 -31.248,0 -8.63999,8.78399 -8.63999,23.32801 0,32.4 l 19.728,20.16 0,20.160004 c 0,12.67199 10.36801,22.896 22.896,22.896 12.67199,0 23.04,-10.22401 23.04,-22.896 l 0,-23.184004 -34.416,-49.536"
         id="path3782"
         inkscape:connector-curvature="0" />
      <path
         style="font-size:144px;font-variant:normal;font-weight:900;font-stretch:normal;fill:#e8e500;fill-opacity:1;stroke:#acaa00;stroke-opacity:1;font-family:VAL Stencil;-inkscape-font-specification:VAL Stencil Heavy;stroke-width:2;stroke-miterlimit:4;stroke-dasharray:none"
         d="m 226.36182,60.835286 c 8.63999,-9.07199 9.21599,-23.32801 0.576,-32.112 -8.63999,-9.07199 -23.47201,-9.35999 -32.256,-0.288 l -10.656,11.376 25.344,35.856 16.992,-14.832"
         id="path3000"
         inkscape:connector-curvature="0" />
      <path
         style="font-size:144px;font-variant:normal;font-weight:900;font-stretch:normal;fill:#9ec600;fill-opacity:1;stroke:#506400;stroke-opacity:1;font-family:VAL Stencil;-inkscape-font-specification:VAL Stencil Heavy;stroke-width:2;stroke-miterlimit:4;stroke-dasharray:none"
         d="m 283.12932,45.283286 c 0.576,-30.52797 -47.232,-29.66397 -47.232,0 l 0,31.536 c 0,26.207974 19.15203,48.384004 47.232,48.384004 l 0,-79.920004"
         id="path3778"
         inkscape:connector-curvature="0" />
      <path
         style="font-size:144px;font-variant:normal;font-weight:900;font-stretch:normal;fill:#e8e500;fill-opacity:1;stroke:#acaa00;stroke-opacity:1;font-family:VAL Stencil;-inkscape-font-specification:VAL Stencil Heavy;stroke-width:2;stroke-miterlimit:4;stroke-dasharray:none"
         d="m 334.10532,76.819286 0,-31.536 c 0,-31.10397 -47.232,-29.37597 -47.232,0 l 0,79.920004 c 27.93597,0 47.232,-22.17603 47.232,-48.384004"
         id="path3002"
         inkscape:connector-curvature="0" />
      <path
         style="font-size:144px;font-variant:normal;font-weight:900;font-stretch:normal;fill:#e8e500;fill-opacity:1;stroke:#acaa00;stroke-opacity:1;font-family:VAL Stencil;-inkscape-font-specification:VAL Stencil Heavy;stroke-width:2;stroke-miterlimit:4;stroke-dasharray:none"
         d="m 337.55232,44.851286 c 0,11.08799 7.77601,20.88 18,23.328 l 45.936,-46.224 -40.896,0 c -12.67199,0 -23.04,10.36801 -23.04,22.896"
         id="path3788"
         inkscape:connector-curvature="0" />
      <path
         style="font-size:144px;font-variant:normal;font-weight:900;font-stretch:normal;fill:#9ec600;fill-opacity:1;stroke:#506400;stroke-opacity:1;font-family:VAL Stencil;-inkscape-font-specification:VAL Stencil Heavy;stroke-width:2;stroke-miterlimit:4;stroke-dasharray:none"
         d="m 407.96832,21.955286 -1.44,0 -61.056,62.064 c -4.752,4.32 -8.208,10.22401 -8.208,17.424004 0,12.67199 10.65601,22.896 23.328,22.896 l 1.152,0 c 45.79195,-46.511954 54.43201,-54.720014 62.352,-62.784004 13.53599,-13.53599 6.33598,-39.6 -16.128,-39.6"
         id="path3786"
         inkscape:connector-curvature="0" />
      <path
         style="font-size:144px;font-variant:normal;font-weight:900;font-stretch:normal;fill:#e8e500;fill-opacity:1;stroke:#acaa00;stroke-opacity:1;font-family:VAL Stencil;-inkscape-font-specification:VAL Stencil Heavy;stroke-width:2;stroke-miterlimit:4;stroke-dasharray:none"
         d="m 408.40032,124.33929 c 12.52799,0 22.896,-11.52001 22.896,-22.896 0,-13.247994 -7.48801,-19.728004 -19.584,-22.752004 l -44.928,45.648004 41.616,0"
         id="path3004"
         inkscape:connector-curvature="0" />
      <path
         style="font-size:144px;font-variant:normal;font-weight:900;font-stretch:normal;fill:#e8e500;fill-opacity:1;stroke:#acaa00;stroke-opacity:1;font-family:VAL Stencil;-inkscape-font-specification:VAL Stencil Heavy;stroke-width:2;stroke-miterlimit:4;stroke-dasharray:none"
         d="m 482.81682,45.283286 c 0.576,-30.52797 -47.232,-29.66397 -47.232,0 l 0,31.536 c 0,26.207974 19.15203,48.384004 47.232,48.384004 l 0,-79.920004"
         id="path3792"
         inkscape:connector-curvature="0" />
      <path
         style="font-size:144px;font-variant:normal;font-weight:900;font-stretch:normal;fill:#9ec600;fill-opacity:1;stroke:#506400;stroke-opacity:1;font-family:VAL Stencil;-inkscape-font-specification:VAL Stencil Heavy;stroke-width:2;stroke-miterlimit:4;stroke-dasharray:none"
         d="m 533.79282,76.819286 0,-31.536 c 0,-31.10397 -47.232,-29.37597 -47.232,0 l 0,79.920004 c 27.93597,0 47.232,-22.17603 47.232,-48.384004"
         id="path3006"
         inkscape:connector-curvature="0" />
      <path
         inkscape:connector-curvature="0"
         id="path5"
         d="m 71.348857,64.676166 c -0.129575,-0.0526 -0.273562,-0.10687 -0.357372,-0.13615 -0.135728,-0.0487 -0.246195,-0.0911 -0.30701,-0.12023 L 36.295434,48.555116 c -1.281362,-0.59421 -2.722075,-0.37686 -3.263709,0.19675 -0.16177,0.17323 -0.28016,0.41866 -0.355639,0.74644 -0.20987,4.526 0.33829,9.27563 1.63274,14.1207 0.14554,0.33996 0.313126,0.62941 0.507681,0.88969 0.568531,0.75903 1.418944,1.38181 2.395272,1.74429 0.839962,0.30952 2.222317,0.57716 2.795327,0.53673 l 31.344497,-2.08214 c -0.0024,-0.0108 -0.0024,-0.0204 -0.0024,-0.0314 z"
         style="fill:url(#linearGradient3121);fill-opacity:1" />
      <path
         inkscape:connector-curvature="0"
         id="path7"
         d="m 71.342404,61.824616 -26.583426,-28.9347 c -1.668294,-1.81376 -4.003908,-3.1165 -5.289123,-2.14707 -0.358324,0.43102 -0.713578,0.88668 -1.055708,1.35312 -0.02396,0.0377 -0.04876,0.0746 -0.07694,0.10961 -1.409855,1.94495 -2.585782,4.12922 -3.48946,6.48279 -0.0072,0.0326 -0.02035,0.0683 -0.03215,0.1 -0.01084,0.024 -0.01938,0.0481 -0.02974,0.0688 -0.283315,0.74903 -0.5494,1.5648 -0.809513,2.48653 -0.0036,0.021 -0.0084,0.0427 -0.01084,0.0646 l 0,0 c 0,0 -8.07e-4,-8.8e-4 -0.0012,-10e-4 0.02396,1.18035 0.739163,2.20415 1.337517,2.85724 0.576502,0.62922 1.319939,1.2258 2.154254,1.72271 1.008921,0.60579 2.110092,1.17201 3.678369,1.89648 l 30.208217,13.94181 z"
         style="fill:url(#linearGradient3823);fill-opacity:1" />
      <path
         inkscape:connector-curvature="0"
         id="path9"
         d="m 83.538677,31.896906 -0.03624,0.22145 c -0.362887,2.27442 -0.729181,4.54868 -1.095476,6.82295 l -3.243723,20.1674 c -0.126697,0.78858 -0.252419,1.57467 -0.378226,2.36246 l -0.0036,0.0142 c 0.06911,0.0523 0.129888,0.0991 0.182527,0.13884 l 15.946172,-14.44618 c 1.080233,-0.97831 2.160551,-1.95833 3.239978,-2.93754 l 1.626636,-1.47395 c 1.613255,-1.46191 2.042475,-2.69091 1.474615,-4.24111 -0.0473,-0.13159 -0.1098,-0.26896 -0.19176,-0.42415 -4.394162,-4.28465 -9.216673,-7.88803 -14.334996,-10.71339 -0.399176,-0.0824 -0.738284,-0.0672 -1.06009,0.0486 -0.511823,0.18535 -0.944241,0.61539 -1.28229,1.27982 -0.488922,0.96496 -0.646117,1.94398 -0.843863,3.18059 z"
         style="fill:url(#linearGradient3821);fill-opacity:1" />
      <path
         inkscape:connector-curvature="0"
         id="path11"
         d="m 72.169122,67.460676 c -0.796955,0.0535 -1.598124,0.10592 -2.39768,0.16009 -6.390788,0.42366 -12.783442,0.85061 -19.173339,1.27347 -2.830328,0.18859 -5.662353,0.37708 -8.4935,0.56478 -0.251396,0.0168 -0.498253,0.0279 -0.74511,0.0391 -1.276427,0.0628 -2.377658,0.11618 -3.185606,0.75076 -0.572215,0.44791 -1.047882,1.17344 -0.265989,3.16322 2.171388,4.60013 4.96167,9.03943 8.294802,13.19765 0.400079,0.38163 0.79055,0.64446 1.224137,0.82649 1.456943,0.61184 2.752224,0.26418 4.328869,-1.16312 l 20.589935,-18.65526 c -0.03227,-0.0565 -0.06357,-0.11201 -0.09427,-0.16508 l -0.08223,0.008 z"
         style="fill:url(#linearGradient3819);fill-opacity:1" />
      <path
         inkscape:connector-curvature="0"
         id="path13"
         d="m 47.39292,31.948986 25.844179,28.12784 c -0.160097,-0.44463 -0.319374,-0.88836 -0.480362,-1.33219 L 61.786948,28.278746 c -0.136052,-0.37754 -0.262304,-0.76393 -0.391711,-1.15553 -0.368486,-1.12485 -0.750408,-2.28922 -1.385292,-3.28048 -0.75148,-1.17176 -1.656013,-2.03296 -2.573213,-2.43743 -0.277113,-0.12136 -0.553035,-0.197 -0.8599,-0.23186 -4.299864,0.73846 -8.175521,2.25952 -11.523704,4.52498 -0.286132,0.3482 -0.403185,0.76024 -0.367354,1.28941 0.107879,1.59854 1.519322,3.66469 2.695804,4.94878"
         style="fill:url(#linearGradient3817);fill-opacity:1" />
      <path
         inkscape:connector-curvature="0"
         id="path15"
         d="m 76.06792,60.195966 c 0.01084,0.0402 0.0248,0.0857 0.0372,0.1294 l 4.251848,-26.43404 c 0.286795,-1.77509 0.571903,-3.55023 0.856193,-5.32627 0.165057,-1.01838 -0.236298,-2.52181 -0.952573,-3.57524 -0.299244,-0.44024 -0.647574,-0.79913 -1.069458,-1.09979 -5.007819,-1.90041 -9.991053,-2.96786 -14.817043,-3.17831 -0.698263,0.18073 -1.03819,0.58388 -1.162215,1.37005 -0.127588,0.80713 0.02878,2.42487 0.309923,3.20407 4.135313,11.48628 8.269085,22.9691 12.406986,34.45467 0.05851,0.16507 0.100655,0.31753 0.139111,0.45546 z"
         style="fill:url(#linearGradient3815);fill-opacity:1" />
      <path
         inkscape:connector-curvature="0"
         id="path17"
         d="m 82.042833,69.663026 25.946207,28.2392 c 1.32085,1.43632 3.42381,3.003604 4.92421,3.050284 0.10897,0.004 0.21235,-0.002 0.31879,-0.0178 2.92081,-3.335614 4.99324,-7.336184 6.16649,-11.902684 -0.0739,-0.30443 -0.19262,-0.60085 -0.36133,-0.90219 -0.20093,-0.3578 -0.46576,-0.71611 -0.78559,-1.06518 -0.39756,-0.43392 -0.88267,-0.85508 -1.44311,-1.25194 -0.89585,-0.63508 -1.96595,-1.0857 -3.00082,-1.5245 -0.41179,-0.17423 -0.81856,-0.34654 -1.21043,-0.52745 -6.90188,-3.18641 -13.805451,-6.3729 -20.708302,-9.55683 l -9.846115,-4.54087 z"
         style="fill:url(#linearGradient3813);fill-opacity:1" />
      <path
         inkscape:connector-curvature="0"
         id="path19"
         d="m 82.361485,66.786326 c -0.07778,0.004 -0.155582,0.01 -0.23253,0.0143 L 115.93,82.398166 c 0.50362,0.23185 1.74051,0.54669 2.49742,0.63417 0.51954,0.061 1.4544,0.0817 1.99448,-0.42436 0.35383,-5.08975 -0.25952,-10.44857 -1.82394,-15.93452 -0.006,-0.008 -0.012,-0.0166 -0.0176,-0.0245 -0.058,-0.0703 -0.11365,-0.13472 -0.17278,-0.19923 -1.11495,-1.21692 -2.89551,-1.86948 -3.97376,-1.79808 -1.63838,0.10985 -3.27675,0.2198 -4.91756,0.32706 L 89.528,66.307326 c -2.389083,0.1588 -4.779058,0.31842 -7.166528,0.47899 z"
         style="fill:url(#linearGradient3811);fill-opacity:1" />
      <path
         inkscape:connector-curvature="0"
         id="path21"
         d="m 77.705548,72.484246 -0.480362,-1.33219 c -0.296691,1.83885 -0.592503,3.6769 -0.886774,5.5184 -0.571577,3.56122 -1.141048,7.09634 -1.711409,10.63228 l -2.315917,14.416814 c -0.0767,0.47734 -0.07802,1.21101 -0.0012,1.91626 0.115826,1.0799 0.454922,2.01822 1.009366,2.78673 0.2922,0.40947 0.624987,0.73719 1.030677,1.02018 5.080156,1.88524 10.120652,2.91399 14.985532,3.06034 1.03648,-0.51293 1.385052,-1.87257 0.846343,-3.3732 L 84.846941,92.310206 c -2.381402,-6.60673 -4.761757,-13.21763 -7.141389,-19.82596 z"
         style="fill:url(#linearGradient3809);fill-opacity:1" />
      <path
         inkscape:connector-curvature="0"
         id="path23"
         d="m 96.614596,110.00323 c 4.553614,-0.78643 8.632024,-2.4644 12.131554,-4.98726 0.28077,-1.20815 -0.48644,-3.00788 -2.01271,-4.67374 -2.7387,-2.982074 -5.4694,-5.953624 -8.199274,-8.924274 L 80.120048,71.374826 92.369129,105.39258 c 0.290153,0.80498 1.214781,2.36282 2.016203,3.2411 l -0.591347,0.5442 0,0 0.597018,-0.53802 c 0.686536,0.7511 1.416801,1.19659 2.223593,1.36337 z"
         style="fill:url(#linearGradient3807);fill-opacity:1" />
      <path
         inkscape:connector-curvature="0"
         id="path25"
         d="m 98.20481,48.165346 c -4.469906,4.05078 -8.941521,8.10147 -13.413065,12.15048 -1.2676,1.15202 -2.535851,2.29978 -3.806787,3.44996 0.05358,0.0905 0.120159,0.19504 0.178686,0.28912 0.363405,-0.0241 0.72681,-0.0484 1.090215,-0.0725 l 0.07188,-0.005 c 6.082948,-0.40278 12.166859,-0.80804 18.246481,-1.21266 l 1.44676,-0.0953 c 3.72884,-0.24483 7.5842,-0.49719 11.07973,-0.81735 0.70285,-0.0639 2.38904,-0.35239 2.86476,-1.62652 0.0692,-0.18183 0.10354,-0.38054 0.10848,-0.60432 -2.34501,-5.41818 -5.5347,-10.6237 -9.48393,-15.47388 -2.54759,-1.53765 -4.82388,0.43463 -7.318242,2.96968 -0.379129,0.38523 -0.737754,0.75198 -1.06487,1.04838 z"
         style="fill:url(#linearGradient3805);fill-opacity:1" />
      <path
         inkscape:connector-curvature="0"
         id="path27"
         d="m 69.877792,99.049516 0.374481,-2.32036 c 0.328417,-2.05459 0.658531,-4.1091 0.990355,-6.16353 l 2.98662,-18.58364 c 0.107878,-0.66353 0.21477,-1.32457 0.320867,-1.98649 -0.05478,-0.0491 -0.136354,-0.12397 -0.22138,-0.199 l -16.430194,14.88557 c -1.410986,1.27962 -2.821984,2.55924 -4.234583,3.8371 -1.420883,1.29014 -1.899427,2.5523 -1.506235,3.97756 0.128997,0.47105 0.35364,0.90268 0.704295,1.35466 4.229008,3.99786 8.848295,7.379414 13.732824,10.050814 0.241741,0.0597 0.456114,0.0859 0.65333,0.0792 0.671907,-0.023 1.229759,-0.36767 1.659577,-1.02606 0.525404,-0.80263 0.679625,-1.89676 0.842045,-3.054744 0.04358,-0.28449 0.08283,-0.56834 0.127998,-0.85107 z"
         style="fill:url(#linearGradient3803);fill-opacity:1" />
      <path
         d="m 127.7127,76.497516 c -1.39015,-13.86658 -8.03967,-27.97093 -18.72872,-39.71922 -0.46647,-0.50736 -0.93496,-1.00804 -1.41178,-1.51249 -10.762711,-11.2463 -24.135647,-18.81087 -37.654664,-21.29864 -13.685447,-2.51852 -26.036736,0.43378 -34.78003,8.31305 -2.348893,2.11676 -4.361424,4.52253 -6.029393,7.1712 -18.937752,17.35831 -21.1259105,54.54633 0.656436,78.320764 21.749139,23.73821 59.206347,25.15836 78.460511,8.20223 2.85993,-1.40273 5.50258,-3.17758 7.88088,-5.32085 8.88943,-8.01096 13.01114,-20.142564 11.60676,-34.156044 z M 44.360211,94.641466 C 22.994054,71.321286 19.63624,39.712006 36.874212,24.177526 c 8.13202,-7.3284 19.699513,-10.05837 32.573064,-7.68913 12.985968,2.38894 25.860469,9.68471 36.246744,20.53612 0.46307,0.48943 0.92338,0.98297 1.3777,1.47706 21.17901,23.2775 24.45181,54.79398 7.29743,70.256354 -17.237987,15.53448 -48.644394,9.20197 -70.008939,-14.116464 z"
         id="path31"
         inkscape:connector-curvature="0"
         style="fill:url(#radialGradient3833);fill-opacity:1;stroke:none" />
    </g>
  </g>
</svg>
